HIERARCHY
ROOT Hips
{
  OFFSET 11.6681 95.1687 -25.963
  CHANNELS 6 Xposition Yposition Zposition Zrotation Xrotation Yrotation
  JOINT ToSpine
  {
    OFFSET -2.69724 7.43032 -0.144315
    CHANNELS 3 Zrotation Xrotation Yrotation
    JOINT Spine
    {
      OFFSET -0.0310711 10.7595 1.96963
      CHANNELS 3 Zrotation Xrotation Yrotation
      JOINT Spine1
      {
        OFFSET 13.1342 3.43533 0.764692
        CHANNELS 3 Zrotation Xrotation Yrotation
        JOINT Neck
        {
          OFFSET 29.8703 7.82586 -0.130764
          CHANNELS 3 Zrotation Xrotation Yrotation
          JOINT Head
          {
            OFFSET 9.52751 0.295786 -0.907742
            CHANNELS 3 Zrotation Xrotation Yrotation
            End Site
            {
              OFFSET 16.4037 0.713936 2.7358
            }
          }
        }
        JOINT LeftShoulder
        {
          OFFSET 27.5574 4.95586 2.47156
          CHANNELS 3 Zrotation Xrotation Yrotation
          JOINT LeftArm
          {
            OFFSET 1.20734 -0.998971 20.1238
            CHANNELS 3 Zrotation Xrotation Yrotation
            JOINT LeftForeArm
            {
              OFFSET 26.8049 -0.0536703 -0.155908
              CHANNELS 3 Zrotation Xrotation Yrotation
              JOINT LeftHand
              {
                OFFSET 26.6817 0 0.320147
                CHANNELS 3 Zrotation Xrotation Yrotation
                End Site
                {
                  OFFSET 18.6119 0 0.382219
                }
              }
            }
          }
        }
        JOINT RightShoulder
        {
          OFFSET 27.5927 4.71444 -2.65209
          CHANNELS 3 Zrotation Xrotation Yrotation
          JOINT RightArm
          {
            OFFSET 2.83739 -1.17114 -18.7564
            CHANNELS 3 Zrotation Xrotation Yrotation
            JOINT RightForeArm
            {
              OFFSET 28.839 -0.0548439 1.22491
              CHANNELS 3 Zrotation Xrotation Yrotation
              JOINT RightHand
              {
                OFFSET 26.5114 0 -0.101894
                CHANNELS 3 Zrotation Xrotation Yrotation
                End Site
                {
                  OFFSET 18.2168 0 0
                }
              }
            }
          }
        }
      }
    }
  }
  JOINT LeftUpLeg
  {
    OFFSET -4.76168 -1.9167 -10.2353
    CHANNELS 3 Zrotation Xrotation Yrotation
    JOINT LeftLeg
    {
      OFFSET 2.55951 -42.0585 -8.02213
      CHANNELS 3 Zrotation Xrotation Yrotation
      JOINT LeftFoot
      {
        OFFSET 3.16357 -42.5282 -3.95426
        CHANNELS 3 Zrotation Xrotation Yrotation
        JOINT LeftToeBase
        {
          OFFSET 0.346054 -6.02161 12.8035
          CHANNELS 3 Zrotation Xrotation Yrotation
          End Site
          {
            OFFSET 0.134235 -1.35082 5.13018
          }
        }
      }
    }
  }
  JOINT RightUpLeg
  {
    OFFSET -4.94151 -1.41743 10.6446
    CHANNELS 3 Zrotation Xrotation Yrotation
    JOINT RightLeg
    {
      OFFSET -2.56294 -42.0364 -7.94377
      CHANNELS 3 Zrotation Xrotation Yrotation
      JOINT RightFoot
      {
        OFFSET -3.0952 -42.555 -4.02241
        CHANNELS 3 Zrotation Xrotation Yrotation
        JOINT RightToeBase
        {
          OFFSET -0.0828122 -6.13587 12.8035
          CHANNELS 3 Zrotation Xrotation Yrotation
          End Site
          {
            OFFSET -0.131328 -1.35082 5.13018
          }
        }
      }
    }
  }
}
MOTION
Frames:	8
Frame Time:	0.0333333
11.6686 95.1437 -25.979 69.6034 -29.9876 -9.71189 -70.1915 0 88.8779 69.1354 71.5317 12.0675 4.58676 19.9658 7.34429 -123.639 36.5549 157.125 152.27 77.7329 -127.198 0.896988 -11.6024 -20.0639 -54.4945 33.6478 -141.745 30.1072 -8.82984 -104.072 0.420957 0.000575647 0.35866 -1.59354 6.01326 41.161 -122.054 -13.208 75.3105 14.6326 -2.02481 82.1254 0.58676 0.000330868 0.0646654 -52.3821 7.60401 92.8204 -2.06375 36.0069 -4.31562 1.09973 -12.4876 -1.10341 2.62563 -8.67236 12.6264 -46.7385 -10.8098 79.7495 1.52499 23.8366 0.635392 -6.51752 1.53597 0.963392 0.519562 -7.32654 3.45925 
11.678 95.0741 -26.0072 69.5854 -30.0422 -9.7109 -70.1915 0 88.8779 69.4665 71.5513 11.9659 4.56495 20.062 7.06945 -123.66 36.4122 157.073 152.725 77.6531 -127.627 0.899611 -11.5884 -19.9766 -54.4846 33.4666 -141.831 30.0354 -8.80637 -104.076 0.420957 0.000575647 0.35866 -1.64004 6.09026 41.5697 -122.215 -12.9004 75.3997 14.9148 -2.04048 82.2126 0.58676 0.000330868 0.0646654 -52.1767 7.87603 93.3509 -2.11027 36.3949 -4.53533 1.74129 -12.3679 -1.10739 2.74833 -8.75715 12.0188 -46.5087 -10.7857 79.7986 1.41125 24.3082 1.43675 -4.89253 1.06324 0.744679 0.576456 -6.38866 1.655 
11.6914 95.0786 -25.9596 69.5403 -29.9369 -9.70563 -70.1915 0 88.8779 69.7061 71.3656 12.5246 4.79913 20.2881 5.59487 -123.158 35.6018 156.449 154.547 77.2146 -128.742 0.903321 -11.6373 -19.2999 -54.5829 33.4994 -142.02 27.5082 -8.18526 -104.529 0.420957 0.000575647 0.35866 -1.7597 6.22546 42.8197 -122.962 -12.3731 75.3518 15.4892 -1.97316 82.72 0.58676 0.000330868 0.0646654 -51.9389 7.98984 93.4696 -2.15646 36.7168 -4.73377 1.14638 -12.4246 -1.09944 2.69189 -8.59766 11.678 -46.425 -10.6734 80.0248 1.23146 24.58 0.102072 -6.68108 1.54788 0.981801 0.45887 -7.56716 4.56691 
11.6413 95.0063 -26.0124 69.4766 -29.8099 -9.58399 -70.1915 0 88.8779 69.778 71.3503 12.4427 4.78333 20.216 5.85914 -123.088 35.6263 156.249 155.496 77.4594 -129.685 0.891975 -11.7502 -19.3284 -54.5391 33.6111 -142.026 28.489 -8.34567 -104.215 0.420957 0.000575647 0.35866 -1.80212 6.18473 43.6757 -122.854 -11.4229 75.8372 15.8846 -2.11522 82.4261 0.58676 0.000330868 0.0646654 -51.2851 8.2359 93.4827 -2.24716 37.6157 -5.01228 1.15909 -12.2082 -1.08438 3.09551 -9.15352 11.0654 -45.9381 -10.4862 80.1972 1.16389 25.3065 0.197216 -7.48781 1.15176 1.10363 0.559554 -7.12273 2.86717 
11.5443 94.8774 -26.0828 69.499 -29.5547 -9.33398 -70.1915 0 88.8779 71.2572 71.3943 11.1034 4.39822 20.131 5.95724 -122.786 35.5131 156.044 155.485 77.4117 -129.374 0.872174 -11.9307 -19.4602 -54.7363 33.6679 -141.807 27.5827 -8.17224 -104.461 0.420957 0.000575647 0.35866 -1.82142 6.21527 43.8349 -122.817 -11.2193 75.6705 15.8993 -2.0505 82.6464 0.58676 0.000330868 0.0646654 -50.5066 8.42661 93.2108 -2.34326 38.7028 -5.15501 0.966326 -12.3056 -1.08764 3.2318 -9.38307 11.0775 -45.5525 -10.4181 80.2452 1.17528 25.9065 -0.648365 -8.0753 1.20303 1.1848 0.58747 -7.90122 3.79641 
11.3804 94.7937 -26.1471 69.6795 -29.4504 -9.04632 -70.1915 0 88.8779 72.2723 71.5856 10.22 4.49578 20.2438 5.97473 -122.975 35.5924 155.784 155.098 77.4961 -129.028 0.856669 -12.083 -19.4868 -54.8922 33.4318 -142.02 27.0736 -8.03815 -104.538 0.420957 0.000575647 0.35866 -1.75076 6.14529 43.0563 -123.068 -11.757 75.2033 16.4209 -2.13919 82.5901 0.58676 0.000330868 0.0646654 -50.0198 8.57204 92.9406 -2.41222 39.6187 -5.12587 0.432727 -12.3895 -1.08301 3.36928 -9.59817 11.006 -45.3473 -10.4118 80.168 1.22532 26.4948 -1.11767 -7.87053 0.893643 1.15892 0.456493 -7.50868 4.4792 
11.2193 94.7182 -26.2033 69.926 -29.3696 -8.82894 -70.1915 0 88.8779 73.5013 71.6977 9.10114 4.42102 20.2872 5.94723 -122.704 35.562 155.922 154.679 77.3706 -128.327 0.855839 -12.0665 -19.6313 -54.6793 33.1414 -142.214 26.964 -8.02173 -104.577 0.420957 0.000575647 0.35866 -1.77225 6.22682 43.0123 -122.902 -11.7035 75.0341 16.6802 -2.26599 82.3044 0.58676 0.000330868 0.0646654 -49.8167 8.67157 92.9232 -2.41701 40.0212 -4.87738 0.751644 -11.8073 -1.04579 4.07356 -10.6944 10.4993 -45.167 -10.4235 80.0943 1.26606 27.1291 -0.752007 -7.78159 0.794869 1.14771 0.473683 -7.24949 3.90602 
10.9157 94.6557 -26.1981 69.9522 -29.2318 -8.58009 -70.1915 0 88.8779 73.5263 71.6663 9.20102 4.62096 20.3098 5.7489 -122.296 35.3218 155.874 154.847 77.1891 -128.328 0.868884 -11.9707 -19.427 -54.7255 33.067 -142.296 28.5116 -8.40087 -104.295 0.420957 0.000575647 0.35866 -1.79842 6.36192 42.7996 -122.978 -12.1065 74.8591 17.0401 -2.38737 82.0908 0.58676 0.000330868 0.0646654 -49.0468 9.14943 92.9389 -2.49736 40.8981 -4.93423 0.785232 -11.6077 -1.03182 4.34024 -11.0408 9.81411 -44.7776 -10.243 80.083 1.28845 27.6279 -1.54892 -7.57185 0.596087 1.12154 0.326427 -6.9044 4.78569 
